<svg width="68" height="53" viewBox="0 0 68 53" fill="none" xmlns="http://www.w3.org/2000/svg">
<path id="Vector" d="M66.5732 15.5957C68.4705 14.3019 68.4705 12.2007 66.5732 10.9069L52.0018 0.970364C50.1045 -0.323455 47.0232 -0.323455 45.1259 0.970364C43.2286 2.26418 43.2286 4.36535 45.1259 5.65916L51.4098 9.94429H4.85714C2.17054 9.94429 0 11.4244 0 13.2565C0 15.0885 2.17054 16.5686 4.85714 16.5686H51.4098L45.1259 20.8538C43.2286 22.1476 43.2286 24.2488 45.1259 25.5426C47.0232 26.8364 50.1045 26.8364 52.0018 25.5426L66.5732 15.606V15.5957ZM15.983 52.0296C17.8804 53.3235 20.9616 53.3235 22.8589 52.0296C24.7563 50.7358 24.7563 48.6347 22.8589 47.3408L16.5902 43.0661H63.1429C65.8295 43.0661 68 41.5859 68 39.7539C68 37.9218 65.8295 36.4417 63.1429 36.4417H16.5902L22.8741 32.1566C24.7714 30.8628 24.7714 28.7616 22.8741 27.4678C20.9768 26.174 17.8955 26.174 15.9982 27.4678L1.42679 37.4043C-0.470536 38.6981 -0.470536 40.7993 1.42679 42.0931L15.9982 52.0296H15.983Z" fill="black"/>
</svg>
