<svg width="68" height="53" viewBox="0 0 68 53" fill="none" xmlns="http://www.w3.org/2000/svg">
<path id="Vector" d="M60.4444 5.67857C61.4833 5.67857 62.3333 6.53036 62.3333 7.57143V11.3571H5.66667V7.57143C5.66667 6.53036 6.51667 5.67857 7.55556 5.67857H60.4444ZM62.3333 22.7143V45.4286C62.3333 46.4696 61.4833 47.3214 60.4444 47.3214H7.55556C6.51667 47.3214 5.66667 46.4696 5.66667 45.4286V22.7143H62.3333ZM7.55556 0C3.38819 0 0 3.39531 0 7.57143V45.4286C0 49.6047 3.38819 53 7.55556 53H60.4444C64.6118 53 68 49.6047 68 45.4286V7.57143C68 3.39531 64.6118 0 60.4444 0H7.55556ZM14.1667 35.9643C12.5965 35.9643 11.3333 37.2301 11.3333 38.8036C11.3333 40.377 12.5965 41.6429 14.1667 41.6429H19.8333C21.4035 41.6429 22.6667 40.377 22.6667 38.8036C22.6667 37.2301 21.4035 35.9643 19.8333 35.9643H14.1667ZM29.2778 35.9643C27.7076 35.9643 26.4444 37.2301 26.4444 38.8036C26.4444 40.377 27.7076 41.6429 29.2778 41.6429H42.5C44.0701 41.6429 45.3333 40.377 45.3333 38.8036C45.3333 37.2301 44.0701 35.9643 42.5 35.9643H29.2778Z" fill="black"/>
</svg>
