<svg width="68" height="53" viewBox="0 0 68 53" fill="none" xmlns="http://www.w3.org/2000/svg">
<path id="Vector" d="M7.55556 5.67857C6.51667 5.67857 5.66667 6.53036 5.66667 7.57143V45.4286C5.66667 46.4696 6.51667 47.3214 7.55556 47.3214H60.4444C61.4833 47.3214 62.3333 46.4696 62.3333 45.4286V7.57143C62.3333 6.53036 61.4833 5.67857 60.4444 5.67857H7.55556ZM0 7.57143C0 3.39531 3.38819 0 7.55556 0H60.4444C64.6118 0 68 3.39531 68 7.57143V45.4286C68 49.6047 64.6118 53 60.4444 53H7.55556C3.38819 53 0 49.6047 0 45.4286V7.57143ZM11.3333 15.1429C11.3333 14.1388 11.7313 13.1759 12.4398 12.466C13.1483 11.756 14.1092 11.3571 15.1111 11.3571C16.113 11.3571 17.0739 11.756 17.7824 12.466C18.4909 13.1759 18.8889 14.1388 18.8889 15.1429C18.8889 16.1469 18.4909 17.1098 17.7824 17.8198C17.0739 18.5297 16.113 18.9286 15.1111 18.9286C14.1092 18.9286 13.1483 18.5297 12.4398 17.8198C11.7313 17.1098 11.3333 16.1469 11.3333 15.1429ZM23.6111 15.1429C23.6111 13.5694 24.8743 12.3036 26.4444 12.3036H52.8889C54.459 12.3036 55.7222 13.5694 55.7222 15.1429C55.7222 16.7163 54.459 17.9821 52.8889 17.9821H26.4444C24.8743 17.9821 23.6111 16.7163 23.6111 15.1429ZM23.6111 26.5C23.6111 24.9266 24.8743 23.6607 26.4444 23.6607H52.8889C54.459 23.6607 55.7222 24.9266 55.7222 26.5C55.7222 28.0734 54.459 29.3393 52.8889 29.3393H26.4444C24.8743 29.3393 23.6111 28.0734 23.6111 26.5ZM23.6111 37.8571C23.6111 36.2837 24.8743 35.0179 26.4444 35.0179H52.8889C54.459 35.0179 55.7222 36.2837 55.7222 37.8571C55.7222 39.4306 54.459 40.6964 52.8889 40.6964H26.4444C24.8743 40.6964 23.6111 39.4306 23.6111 37.8571ZM15.1111 30.2857C14.1092 30.2857 13.1483 29.8869 12.4398 29.1769C11.7313 28.4669 11.3333 27.504 11.3333 26.5C11.3333 25.496 11.7313 24.5331 12.4398 23.8231C13.1483 23.1131 14.1092 22.7143 15.1111 22.7143C16.113 22.7143 17.0739 23.1131 17.7824 23.8231C18.4909 24.5331 18.8889 25.496 18.8889 26.5C18.8889 27.504 18.4909 28.4669 17.7824 29.1769C17.0739 29.8869 16.113 30.2857 15.1111 30.2857ZM11.3333 37.8571C11.3333 36.8531 11.7313 35.8902 12.4398 35.1802C13.1483 34.4703 14.1092 34.0714 15.1111 34.0714C16.113 34.0714 17.0739 34.4703 17.7824 35.1802C18.4909 35.8902 18.8889 36.8531 18.8889 37.8571C18.8889 38.8612 18.4909 39.8241 17.7824 40.534C17.0739 41.244 16.113 41.6429 15.1111 41.6429C14.1092 41.6429 13.1483 41.244 12.4398 40.534C11.7313 39.8241 11.3333 38.8612 11.3333 37.8571Z" fill="black"/>
</svg>
